<?xml version="1.0" encoding="UTF-8"?><svg id="Layer_2" xmlns="http://www.w3.org/2000/svg" viewBox="0 0 92.3 116.12"><defs><style>.cls-1{fill:#eeb57d;}.cls-1,.cls-2,.cls-3,.cls-4,.cls-5,.cls-6,.cls-7,.cls-8,.cls-9,.cls-10,.cls-11,.cls-12,.cls-13,.cls-14,.cls-15{stroke-width:0px;}.cls-2{fill:#121218;}.cls-3{fill:#14101e;}.cls-4{fill:#83163c;}.cls-5{fill:#954083;}.cls-6{fill:#c3753c;}.cls-7{fill:#f7c675;}.cls-8{fill:#edbf17;}.cls-9{fill:#c05898;}.cls-10{fill:#a85ca6;}.cls-11{fill:#ecad14;}.cls-12{fill:#f5d47e;}.cls-13{fill:#ea9c50;}.cls-14{fill:#27b1ef;}.cls-15{fill:#d78740;}</style></defs><g id="Layer_1-2"><path class="cls-3" d="M84.58.22c-.74,6.46,2.08,3.01,3.84,3.91.6.31-.05,3.34.08,3.52.15.21,2.95,0,3.44.08-.16,33.71.12,67.42,0,101.13-.75.41-3.08-.05-3.29.23-.12.17.16,3.04-.08,3.21-.18.12-3.2-.16-3.37.08-.1.14.08,2.97,0,3.52-25.83.27-51.66-.12-77.49.16-.39-1.04,0-3.46-.16-3.68-.17-.24-3.34.05-3.52-.08-.17-.12-.05-2.52-.08-2.97,5.74-1.18,2.85,2.08,3.68,2.66h77.49c.25-.18-.09-2.64.16-2.82.17-.12,2.88.16,3.05-.08.16-.22,0-4.67,0-5.4.36-32.06-.27-64.14,0-96.2-.09-.2-3.34-.4-3.76-.39l-.08-2.97c-11.72-.08-23.43.07-35.15.16-4.74.03-9.52-.22-14.25-.16l.16-3.76c16.42.08,32.89-.07,49.31-.16Z"/><path class="cls-3" d="M9.75,21.67c.05,0,.1,0,.16,0,.78,0,1.57,0,2.35,0,2.35-.02,4.7,0,7.04,0,2.24,0,4.5.15,6.73.16.13,2.75-.52,3.06.94,3.13l.08.31c-1.39.25-10.66-.32-11.12,0-.31.22.23,3.2-.31,3.44-5.83.77.85-4.14-5.17-3.29-.32,5.21.09,10.45.08,15.66-.03,8.87-.17,17.74-.16,26.61.02,10.69-.21,21.41,0,32.09.04,1.84-.14,4.68,0,6.11-3.5.58-2.58.29-2.66-3.76-.41-20.22.03-40.51-.16-60.74-.05-5.24.04-10.49,0-15.73l-3.52-.23c-.73.32-.08,14.27-.08,15.97.07,18.99.02,37.99,0,56.98,0,3.53-.35,7.11-.16,10.65H.2C-.16,80.97.24,52.86.2,24.8c.09-.73,2.52,0,2.9-.47.29-.37-.17-2.01.23-2.5.05,0,.1,0,.16,0,2.1,0,4.17-.13,6.26-.16Z"/><path class="cls-5" d="M49.36,4.29c-2.96,2.17,1.38,2.45-3.76,2.9.35,4.34-.72,1.64-3.13,2.97.73,5-3.58-.58-2.82,4.85-2.05.28-2.8-.64-2.66,2.04l.31.08c-.02.26.08,1.14-.08,1.25-.87.62-2.79-1.89-2.27,3.29-.02,0,.16.12-.47.16-1.39.08-2.83,0-4.23,0-1.41,0-2.82,0-4.23,0-2.23,0-4.49-.16-6.73-.16.11-1.55-.28-3.54.31-3.44l14.01.16.08-3.44c-.95-.52-6.04.17-6.5-.16-.27-.19.16-2.11-.23-2.97.16,0,.31,0,.47,0,3.99-.03,7.99-.11,11.98.16l.16-4.07c-1.49-.02-2.98.02-4.46,0l-.08-3.29h-7.59l.16-.16c2.5-.01,5.02-.28,7.51-.31,4.73-.06,9.51.19,14.25.16Z"/><path class="cls-8" d="M22.43,8.05c1.67-.04,3.34.04,5.01,0v3.76c-.16,0-.31,0-.47,0-2.48.02-4.96-.02-7.44,0-.16.11-.07,2.68-.08,3.13-.02,1.04.01,2.09,0,3.13h-9.63l-.08,3.6c-2.09.02-4.17.15-6.26.16-.97-6.02,3.36-2.77,4.31-3.44.25-.18-.06-2.6.08-2.9.31-.66,2.26-.23,2.82-.23.31,0,.63,0,.94,0,1.43-.02,2.87.01,4.31,0l-.08-3.29c.42-.03,2.72-.16,2.82-.39.22-.49-.22-2.95-.16-3.13.22-.64,3.18-.37,3.91-.39Z"/><path class="cls-8" d="M91.94,7.74c-.49-.07-3.3.13-3.44-.08-.13-.18.52-3.21-.08-3.52-1.75-.91-4.57,2.54-3.84-3.91,1.02,0,6.89-.45,7.36-.08.45.36,0,6.61,0,7.59Z"/><path class="cls-8" d="M3.8,109.03s.13-.11.16.31c.03.45-.1,2.85.08,2.97.18.13,3.35-.16,3.52.08.16.22-.23,2.64.16,3.68H.44c-.29-.21-.22-6.17-.23-7.04h3.6Z"/><path class="cls-8" d="M85.21,115.92c.08-.55-.1-3.38,0-3.52.17-.24,3.19.05,3.37-.08.24-.17-.05-3.03.08-3.21.2-.29,2.54.17,3.29-.23.53.62.38,6.69.16,6.97-.48.6-5.88.07-6.89.08Z"/><path class="cls-8" d="M35.27.38l-.16,3.76c-2.49.03-5.02.3-7.51.31l-.16-3.99c.25-.64,6.43-.4,7.59-.39.12,0,0,.31.23.31Z"/><path class="cls-10" d="M35.11,7.9c-2.52-.04-5,.11-7.51.16,0-.82-.23-1.69-.16-2.5.03-.31-.02-.63,0-.94h7.59l.08,3.29Z"/><path class="cls-14" d="M27.44,5.55c-.08.81.15,1.69.16,2.5-.05,0-.1,0-.16,0-1.67.04-3.34-.04-5.01,0-1.46-1.88,1.77-.75,2.27-1.1.5-.35-1.25-1.8,2.74-1.41Z"/><path class="cls-11" d="M3.33,21.83c-.41.5.06,2.14-.23,2.5-.38.47-2.81-.26-2.9.47,0-.62-.51-2.51.08-2.97.59-.47,2.36,0,3.05,0Z"/><path class="cls-14" d="M13.98,13.53c0,.08.45,1.19.23,1.57l-2.58.16c-.31,0-.63,0-.94,0-.5-.05-.36-1.95-.08-2.04,1.3.12,2.9-.3,3.37.31Z"/><path class="cls-14" d="M15.86,11.97l.08,3.29c-1.43.01-2.87-.02-4.31,0l2.58-.16c.22-.38-.23-1.49-.23-1.57-.03-2.66.86-1.49,1.88-1.57Z"/><path class="cls-14" d="M16.72,9.62l1.64.08c.65,3.03-2.4,2.53-1.64-.08Z"/><path class="cls-9" d="M84.58,7.11c.42-.01,3.67.19,3.76.39-.27,32.06.36,64.14,0,96.2-.71-.26.22-1.99-1.17-3.6-1.2.49-1.89-.26-2.04,1.25l-.39-.47c.52-29.65-.39-59.35,0-89l-2.66-.08c0-.05,0-.1,0-.16.74-3.33-1.3-4.42,2.5-4.54Z"/><path class="cls-5" d="M7.72,102.14c.08,4.05-.84,4.34,2.66,3.76.06.63.46.74.47.78.07.4-.13,2.2.08,2.35h70.6c.1-.07.07-1.4.23-2.35,0-.03.31-.59.31-.63.48-.1,2.46.23,2.66-.23.1-.23-.01-4.17,0-4.93l.39.47c.14-1.52.83-.77,2.04-1.25,1.39,1.61.47,3.34,1.17,3.6,0,.73.16,5.18,0,5.4-.17.24-2.88-.04-3.05.08-.25.18.09,2.64-.16,2.82H7.64c-.82-.58,2.06-3.84-3.68-2.66-.03-.42-.16-.3-.16-.31-.19-3.54.15-7.11.16-10.65,1.08-1.73,1.46-.77,2.58-1.41,1.69,1.3.25,4.48,1.17,5.17Z"/><path class="cls-5" d="M84.58,7.11c-3.8.12-1.77,1.21-2.5,4.54-.02-1.38.02-2.77,0-4.15-.26-.59-2.94-.05-3.44-.08-.15,0-.16-.15-.31-.16-10.82-.51-21.66.13-32.48,0-.14.1-.09,1.88-.08,2.19,0,.17-.05.32.16.31-.02,0-.3.24-.31.31-4.6-.89-2.13,1.54-2.9,2.5-.71.9-3.54-1.49-2.74,2.66-.8.1-2.48.08-2.58.16-.17.12-.05,1.41-.08,1.72l-.31-.08c-.14-2.67.61-1.76,2.66-2.04-.76-5.44,3.55.15,2.82-4.85,2.41-1.34,3.48,1.37,3.13-2.97,5.13-.45.8-.73,3.76-2.9,11.72-.09,23.43-.24,35.15-.16l.08,2.97Z"/><path class="cls-9" d="M7.56,41.4c.18,20.23-.25,40.52.16,60.74-.92-.68.52-3.86-1.17-5.17-1.12.64-1.51-.32-2.58,1.41.02-18.99.07-37.99,0-56.98h3.6Z"/><path class="cls-4" d="M7.56,41.4h-3.6c0-1.7-.65-15.64.08-15.97l3.52.23c.04,5.24-.05,10.49,0,15.73Z"/><path class="cls-13" d="M30.26,21.83c-.08.68.11,2.16,0,2.5-.18.54-2.57.66-3.29.63-1.46-.07-.81-.38-.94-3.13,1.41,0,2.82,0,4.23,0Z"/><path class="cls-10" d="M19.46,18.07l.16.16c-.59-.1-.21,1.9-.31,3.44-2.35,0-4.7-.02-7.04,0-.62-3.52,1.1-3.75-2.35-3.37v3.37c-.05,0-.1,0-.16,0l.08-3.6h9.63Z"/><path class="cls-10" d="M12.26,21.67c-.78,0-1.57,0-2.35,0v-3.37c3.45-.38,1.73-.15,2.35,3.37Z"/><path class="cls-3" d="M33.71,14.94l-.08,3.44-14.01-.16-.16-.16c.01-1.04-.02-2.09,0-3.13h14.25Z"/><path class="cls-3" d="M35.11,7.9c1.49.02,2.97-.02,4.46,0l-.16,4.07c-3.98-.26-7.99-.19-11.98-.16v-3.76c.05,0,.1,0,.16,0,2.51-.05,4.99-.2,7.51-.16Z"/><path class="cls-10" d="M26.97,11.81c.39.87-.04,2.78.23,2.97.46.33,5.55-.36,6.5.16h-14.25c0-.45-.08-3.02.08-3.13,2.48-.02,4.96.02,7.44,0Z"/><path class="cls-3" d="M42.79,12.9c.58,5.91-3.11-.81-2.82,5.48-.39.07-2.21-.12-2.35.08-.09.13-.08,3.1-.23,3.21-.1.07-2.01-.03-2.43,0-.52-5.17,1.4-2.67,2.27-3.29.16-.12.06-.99.08-1.25.03-.31-.09-1.6.08-1.72.11-.07,1.78-.06,2.58-.16.66-.08,2.33-.09,2.43-.16.42-.3-.16-1.88.39-2.19Z"/><path class="cls-3" d="M34.49,21.83c-.08.67.11,1.92,0,2.35-.21.77-3.81.62-4.23.16.11-.34-.08-1.82,0-2.5,1.4,0,2.84.08,4.23,0Z"/><path class="cls-3" d="M84.74,100.89c-.01.76.1,4.71,0,4.93-.21.47-2.18.14-2.66.23.18-1.7-.13-4.26,0-6.11-.34-29.37.46-58.77,0-88.14l2.66.08c-.39,29.65.52,59.35,0,89Z"/><path class="cls-2" d="M79.26,106.68h2.5c-.16.95-.14,2.28-.23,2.35H10.93c-.2-.14,0-1.95-.08-2.35h68.41Z"/><path class="cls-3" d="M78.32,7.27l-.23,2.19h-32.33c-.01-.32-.06-2.1.08-2.19,10.82.13,21.66-.51,32.48,0Z"/><path class="cls-2" d="M45.6,10.09c.46,4.43-1.19,1.9-2.82,2.82-.55.31.03,1.89-.39,2.19-.1.07-1.77.08-2.43.16-.8-4.15,2.03-1.76,2.74-2.66.77-.97-1.71-3.4,2.9-2.5Z"/><path class="cls-6" d="M37.46,24.49c1.65.07,4.9.5,5.32-.16,1.51.01,3.05.15,4.54.16v3.6c-9.47,0-18.94.45-28.41.31-.34,3.13-.19,2.24,2.9,2.35l-.23,3.13c-2.3-.44-1.92.3-2.04.31-.91.11-2.37-.04-3.44,0-.12,0,0,.31-.23.31-.15,0-.45-.81-2.66-.08-.26.58.19,3.79.16,4.62,0,.11-.29-.69-.31,2.04h-2.5c.02-5.21-.4-10.44-.08-15.66,6.02-.85-.67,4.06,5.17,3.29.54-.24,0-3.23.31-3.44.45-.32,9.72.25,11.12,0l-.08-.31c.72.04,3.11-.08,3.29-.63.42.47,4.02.62,4.23-.16.33.55,1.59.25,2.97.31Z"/><path class="cls-11" d="M13.04,41.08c-.05,4.68,0,22.34.31,25.52.04.36-.02.73,0,1.1h-2.97c-.02-8.87.13-17.74.16-26.61h2.5Z"/><path class="cls-15" d="M39.97,18.38c-.4.4-2-.04-2.19.23-.5.7,1,5.29-.31,5.87-1.39-.06-2.64.24-2.97-.31.11-.43-.08-1.68,0-2.35.63-.04.44-.15.47-.16.41-.03,2.33.07,2.43,0,.15-.11.14-3.08.23-3.21.14-.2,1.96-.01,2.35-.08Z"/><path class="cls-6" d="M49.83,9.77c.28,6.98-.37,4.24-1.8,4.85-.35.15.21,6.22-.23,7.2-3.1.02-6.21-.02-9.31,0-.96,3.66.19,2.47,4.31,2.5-.42.66-3.67.23-5.32.16,1.31-.58-.18-5.17.31-5.87.2-.28,1.8.17,2.19-.23-.29-6.29,3.4.43,2.82-5.48,1.63-.92,3.28,1.62,2.82-2.82.01-.07.29-.31.31-.31.21-.08,3.12.01,3.91,0Z"/><path class="cls-13" d="M79.26,106.68H10.85s-.41-.15-.47-.78c-.14-1.42.04-4.26,0-6.11h.16c.17,1.01-.38,6.27.39,6.58,3.76.52.58-1.9,2.82-2.35,3.2-.64,56.58.49,65.28,0l.23,2.66Z"/><path class="cls-6" d="M13.2,99.79c0,.08.16.24.16,1.57,0,.13-.37,1.37-.08,2.5h65.75l.08-3.91h2.97c-.13,1.85.18,4.4,0,6.11,0,.03-.31.59-.31.63h-2.5l-.23-2.66c-8.7.49-62.08-.64-65.28,0-2.23.44.95,2.86-2.82,2.35-.77-.31-.23-5.56-.39-6.58h2.66Z"/><path class="cls-13" d="M13.35,101.36c2.73.55,2.66-.16,2.82-.16.16,0,.48.54,3.13.31l.16.16c16.46-.17,37.03.76,52.99.16.06,0,.25-.31.31-.31,1.04-.04,2.09.05,3.13,0,.12,0,0-.31.23-.31.02,0-.05.32.08.31.83-.02,1.67.02,2.5,0,.4-.28.19-.93.23-1.57h.16l-.08,3.91H13.28c-.29-1.14.08-2.38.08-2.5Z"/><path class="cls-3" d="M72.37,71.61c-.14.36.17,2.01-.08,2.19-7.69.19-15.4-.18-23.09-.16.09-.43-.22-1.99.23-2.19,1.05-.46,20.08.24,22.93.16Z"/><path class="cls-3" d="M38.87,71.61c.02.73-.02,1.46,0,2.19-6.52,0-13.05-.11-19.57,0-.02-.68.03-1.36,0-2.04,0-.11-.04-.27.08-.31.92-.32,16.95.54,19.49.16Z"/><path class="cls-3" d="M19.46,101.67l-.16-.16.23-2.04,19.33.08-.23,2.11h-19.18Z"/><path class="cls-3" d="M16.17,101.2c-.15,0-.09.71-2.82.16,0-1.33-.16-1.49-.16-1.57,0-2.88.32-5.8.16-8.69l2.74-.08.08,10.18Z"/><path class="cls-3" d="M78.79,91.02c-.27,2.59.32,6.75.16,8.92-.05.64.17,1.29-.23,1.57-.83.02-1.67-.02-2.5,0-.13,0-.06-.31-.08-.31v-10.25l2.66.08Z"/><path class="cls-3" d="M16.02,67.7c.18,1.83-.13,4.33,0,6.26-.43,0-2.41.49-2.66-.08l.16-6.18h2.5Z"/><path class="cls-1" d="M13.35,67.7h.16l-.16,6.18c.25.57,2.23.08,2.66.08,1.11,0,2.2-.14,3.29-.16,6.52-.11,13.05,0,19.57,0,3.3,0,6.63.17,9.94.16.08,0,.37-.31.39-.31,7.69-.02,15.4.34,23.09.16.25-.18-.06-1.83.08-2.19.33-.89,8.02-.35,9.39-.39v28.49h-2.66v-8.61l-.31-.08-2.66-.08v10.25c-.24,0-.11.31-.23.31-1.04.05-2.09-.04-3.13,0-.06,0-.25.31-.31.31-15.97.6-36.53-.32-52.99-.16h19.18l.23-2.11-19.33-.08-.23,2.04c-2.65.23-2.97-.31-3.13-.31l-.08-10.18-2.74.08c.16,2.89-.15,5.81-.16,8.69h-2.82c-.21-10.68.02-21.41,0-32.09h2.97Z"/><path class="cls-3" d="M49.28,84.76h23.17l.08,2.27q-11.62.12-23.25.23v-2.5Z"/><path class="cls-3" d="M49.28,77.87h22.86l.23,2.27-23.09.23v-2.5Z"/><path class="cls-3" d="M49.28,99.48h23.17l.08,1.96q-11.55.12-23.09.23l-.16-2.19Z"/><path class="cls-3" d="M19.38,84.76h19.41l.08,2.27-19.49.23v-2.5Z"/><path class="cls-3" d="M19.38,77.87h19.26l.08,2.43-19.33.08v-2.5Z"/><path class="cls-3" d="M67.13,91.49c2.26,0,2.31-.09,1.72,2.5l-19.65-.08.08-2.27c5.95.16,11.9-.14,17.85-.16Z"/><path class="cls-3" d="M19.54,91.49h19.1l.08,2.27q-9.59.12-19.18.23v-2.5Z"/><path class="cls-12" d="M13.43,74.27l2.27.08.08,7.12-2.58-.08q.12-3.56.23-7.12Z"/><path class="cls-3" d="M76.21,77.09c3.71-.65,2.61,1.59,2.35,4.38-3.71.65-2.61-1.59-2.35-4.38Z"/><path class="cls-12" d="M69.32,91.34h2.66c.82,3.28.1,2.66-2.66,2.66v-2.66Z"/><path class="cls-15" d="M16.02,67.7h-2.66c-.02-.36.04-.74,0-1.1h2.58c.16.11.05.85.08,1.1Z"/><path class="cls-3" d="M21.81,30.75c-3.08-.1-3.24.79-2.9-2.35,9.47.14,18.95-.3,28.41-.31,8.27,0,16.54.33,24.81.16v2.19l-50.33.31Z"/><path class="cls-3" d="M47.8,21.83c8.17-.06,16.33.05,24.5,0v2.5c-6.97-.01-13.93.02-20.9,0-1.35,0-2.74.16-4.07.16-1.49,0-3.03-.15-4.54-.16-4.11-.03-5.26,1.16-4.31-2.5,3.1-.02,6.21.02,9.31,0Z"/><path class="cls-7" d="M51.4,24.33l19.18.16c.17,1.89-.49,1.6-.55,1.8-.11.43.69.62.08,1.49l-22.78.16v-3.44c1.33,0,2.72-.16,4.07-.16Z"/><path class="cls-3" d="M15.86,34.51c-.21,4.65,1.06,4.76-2.5,4.54.03-.83-.41-4.04-.16-4.62,2.21-.73,2.52.08,2.66.08Z"/><path class="cls-13" d="M38.87,71.61c-2.54.39-18.57-.48-19.49-.16-.12.04-.08.2-.08.31-.04-.75-.22-1.45.08-2.19h19.41c.16.11.07,1.71.08,2.04Z"/><path class="cls-12" d="M82.08,11.65c0,.05,0,.1,0,.16.46,29.37-.34,58.77,0,88.14h-3.13c.16-2.18-.43-6.34-.16-8.92l.31.08v8.61h2.66v-28.49c-1.37.04-9.06-.5-9.39.39-2.85.09-21.89-.62-22.93-.16-.45.2-.15,1.76-.23,2.19-.03,0-.31.31-.39.31-3.31,0-6.64-.16-9.94-.16-.02-.73.02-1.46,0-2.19,0-.33.08-1.92-.08-2.04h-19.41c-.3.74-.11,1.45-.08,2.19.03.68-.02,1.36,0,2.04-1.09.02-2.18.16-3.29.16-.13-1.93.18-4.44,0-6.26-.02-.24.08-.98-.08-1.1h-2.58c-.32-3.18-.36-20.84-.31-25.52.03-2.73.31-1.92.31-2.04,3.57.22,2.3.11,2.5-4.54.24,0,.11-.31.23-.31,1.08-.04,2.53.11,3.44,0,.11-.01-.27-.75,2.04-.31l.23-3.13,50.33-.31v-2.19c-8.27.18-16.55-.16-24.81-.16v-.16l22.78-.16c.62-.87-.19-1.05-.08-1.49.05-.2.72.09.55-1.8l-19.18-.16c6.97.02,13.93-.01,20.9,0v-2.5c-8.17.05-16.33-.06-24.5,0,.44-.98-.11-7.05.23-7.2,1.43-.61,2.08,2.13,1.8-4.85,9.52-.17,19.05.13,28.57,0l.23-2.35c.5.03,3.18-.51,3.44.08.02,1.38-.02,2.77,0,4.15Z"/><path class="cls-3" d="M78.64,7.43l-.23,2.35c-9.52.13-19.05-.17-28.57,0-.79.01-3.7-.08-3.91,0-.21.01-.15-.14-.16-.31h32.33l.23-2.19c.15,0,.16.15.31.16Z"/><path class="cls-1" d="M40.75,57.37c-.76-.75-18.9.25-21.37-.16l-.08,2.5c-.95-.33.27-4.02.08-5.48,3.67-.46,28.09.6,29.43,0,1.05-.47-1.58-3.17,2.82-2.5.29.18-.6,2.16.31,2.5.86.32,15.86-.25,18.32,0v2.66c-6.99.07-13.99-.09-20.98,0-.19,0-.4.54-3.6.31-.28-.02-3.35-2.29-2.97,2.5-3.09.61-1.14-1.53-1.96-2.35Z"/><path class="cls-1" d="M64.39,39.21s.12.31.23.31c4.33.21,6.5-1.7,4.85,2.5l-50.33-.16c.05-.47-.17-2.45.23-2.66,13.79.29,27.62-.32,41.41-.16.01,0-.05-.16.16-.16.49,0,2.49.28,3.44.31Z"/><path class="cls-3" d="M60.95,38.89c-.2,0-.15.16-.16.16H19.38l-.23-2.11,41.56-.23.23,2.19Z"/><path class="cls-3" d="M19.38,51.73h29.28l.23,2.11-29.51.23v-2.35Z"/><path class="cls-3" d="M40.75,57.37c-.09.45.22,2.15-.23,2.35-.97.43-18.51-.33-21.21,0l.08-2.5c2.47.41,20.61-.6,21.37.16Z"/><path class="cls-3" d="M49.28,57.21h20.98l.23,2.27-21.06.23-.16-2.5Z"/><path class="cls-3" d="M52.1,51.73h20.35l.23,2.11-20.59.23v-2.35Z"/><path class="cls-13" d="M49.44,69.58h22.86l.08,1.64q-11.55.04-23.09.08l.16-1.72Z"/><path class="cls-3" d="M72.37,39.05h-7.98l-.08-2.35h7.98c.15.11.08,2,.08,2.35Z"/><path class="cls-3" d="M76.52,18.85c3.39-.4,2.78.26,2.35,5.32-3.48.39-2.31-.37-2.35-5.32Z"/><path class="cls-3" d="M76.68,34.04c3.28-.41,2.16.48,2.19,5.17-3.28.41-2.16-.48-2.19-5.17Z"/><path class="cls-3" d="M43.18,57.21l2.27.08c.02,2.23.13,2.99-2.35,2.19l.08-2.27Z"/><path class="cls-7" d="M72.37,39.05c0,1.5.04,2.18-.94,2.9.2.29,1.91-.82,1.1,2.9l-.23-2.5q-26.57.08-53.15.16c.02.68-.02,1.36,0,2.04,0,.18-.05.33.16.31-.93.53-.24-2.29-.16-2.97l50.33.16c1.65-4.2-.52-2.29-4.85-2.5-.12,0-.22-.31-.23-.31v-.16h7.98Z"/><path class="cls-2" d="M72.53,44.84H19.3c-.2.01-.15-.14-.16-.31h52.84l.08-1.96q-26.46-.04-52.91-.08,26.57-.08,53.15-.16l.23,2.5Z"/><path class="cls-3" d="M19.15,44.53c-.02-.68.02-1.36,0-2.04q26.46.04,52.91.08l-.08,1.96H19.15Z"/></g></svg>