<?xml version="1.0" encoding="UTF-8"?><svg id="Layer_2" xmlns="http://www.w3.org/2000/svg" viewBox="0 0 118.93 117.96"><defs><style>.cls-1{fill:#b46b32;}.cls-1,.cls-2,.cls-3,.cls-4,.cls-5,.cls-6,.cls-7,.cls-8,.cls-9,.cls-10,.cls-11,.cls-12,.cls-13,.cls-14,.cls-15{stroke-width:0px;}.cls-2{fill:#101425;}.cls-3{fill:#47919e;}.cls-4{fill:#e4ad43;}.cls-5{fill:#fdfcfc;}.cls-6{fill:#99c8b8;}.cls-7{fill:#ceded1;}.cls-8{fill:#334a70;}.cls-9{fill:#b5d1c1;}.cls-10{fill:#f4ebdd;}.cls-11{fill:#d7d5c8;}.cls-12{fill:#e7ede9;}.cls-13{fill:#207a99;}.cls-14{fill:#f3cd63;}.cls-15{fill:#66bbd9;}</style></defs><g id="Layer_1-2"><path class="cls-12" d="M17,.68l-.11,2.53h-3.47c.07-.58-.26-2.69.32-2.95,1.14-.51,3.09.43,3.26.42Z"/><path class="cls-5" d="M13.21,3.41c-.05.47.13,2.57-.11,2.74-.15.11-2.4-.08-3.05,0,.28-2.84-.98-3.44,3.16-2.74Z"/><path class="cls-5" d="M7.95,114.73c-.46-.02-2.79.12-2.95-.11-.08-.12.02-2.37,0-2.84.74.09,2.35-.12,2.63,0,.61.27.2,2.36.32,2.95Z"/><path class="cls-5" d="M107.28,114.73c.45,4.48-.34,2.54-2.95,2.74.11-.56-.28-2.47.32-2.74.16-.07,2.02,0,2.63,0Z"/><path class="cls-5" d="M6.9,26.98c-.04.53.17,2.49-.32,2.74-.23.12-2.1-.09-2.84,0,.06-.56-.27-2.48.32-2.74.29-.13,2.07.09,2.84,0Z"/><path class="cls-5" d="M110.86,112.21c-.09.56.27,2.48-.32,2.74-.58.26-2.48-.22-2.84-.21l.11-2.53h3.05Z"/><path class="cls-5" d="M3.11,90.74c-3.72.66-2.83.32-2.95-2.53.63.08,2.69-.11,2.84,0,.22.15.08,2.1.11,2.53Z"/><path class="cls-5" d="M13.43,117.89c-3.27.28-2.98-.17-2.53-3.16.83.05,2.08-.21,2.31.32.24.54-.34,2.23.21,2.84Z"/><path class="cls-5" d="M118.43,14.15c-.64-.07-2.29.09-2.42,0-.22-.15-.08-2.09-.11-2.53,4.09-.91,2.43.93,2.53,2.53Z"/><path class="cls-5" d="M3.54,32.87v1.68c-.27,0-.59.42-.63.42-.77.02-1.54-.02-2.31,0,.18-1.43-1.85-2.43,2.95-2.1Z"/><path class="cls-5" d="M54.88,2.78c-3.04-.17-2.31.88-2.31-2.53.12,0,1.55-.5,2.31-.11v2.63Z"/><path class="cls-5" d="M9.85,22.56c-.06,1.34.32,2.06-.42,2.31-3.74.24-3.08-3.64.42-2.31Z"/><path class="cls-5" d="M115.91,10.15c-.34-2.98-2.33-.71-2.95-1.58-.08-.12.05-1.55,0-2,2.95-.27,3.1-.07,2.95,3.58Z"/><path class="cls-5" d="M5.01,93.48c-2.68.66-1.72-.05-1.89-2.53,2.57-.22,1.76.4,1.89,2.53Z"/><path class="cls-5" d="M2.9,34.98s.36-.43.63-.42c.16,0-.79.5,2.95.53l-.11,2.84h-2.95c-.36-1.36.31-3.08-.53-2.95Z"/><path class="cls-2" d="M52.57.26c0,3.4-.73,2.36,2.31,2.53.52.03,2.93-.09,3.05,0,.31.22-.1,2.09.21,2.31h54.5c.52.37.26.95.32,1.47.05.45-.08,1.88,0,2,.62.87,2.61-1.4,2.95,1.58.05.48-.03.99,0,1.47.02.43-.11,2.37.11,2.53.13.09,1.78-.07,2.42,0,.71,12,.55,59.81.21,73.76,0,.17-.42.08-.42.11-.54.09-3.18-.16-3.37.11-.26.37.03,7.92,0,9.15-.04,1.69.12,3.48,0,5.16-.01.17-.42.08-.42.11-5.27-.9-2.86,2.08-3.37,9.05-.05.44-.18.47-.21.63h-3.05l-.11,2.53c-.14,0-.28,0-.42,0-.61,0-2.47-.07-2.63,0-.6.26-.21,2.17-.32,2.74-.02,0,.07.41-.11.42H13.43c-.55-.61.03-2.3-.21-2.84-.23-.52-1.48-.27-2.31-.32-.98-.06-1.97.03-2.95,0-.12-.58.29-2.68-.32-2.95-.28-.12-1.89.09-2.63,0-.2-5.72.34-13,0-18.31-.14-2.12.68-2.75-1.89-2.53,0-.07,0-.14,0-.21-.02-.43.11-2.37-.11-2.53-.15-.11-2.21.08-2.84,0C-.04,83.04-.07,37.73.17,35.08c.02-.17.42-.08.42-.11.77-.02,1.54.02,2.31,0,.84-.14.16,1.59.53,2.95h2.95l.11-2.84c-3.74-.02-2.78-.52-2.95-.53v-1.68c-.14-1.08.1-2.1.21-3.16.75-.09,2.61.12,2.84,0,.48-.25.27-2.2.32-2.74.31-3.84.33-1.33,2.53-2.1.74-.26.36-.98.42-2.31.26-5.46-.33-10.95.21-16.41.65-.08,2.9.11,3.05,0,.24-.17.06-2.27.11-2.74,0-.01.17.07.21-.21h3.47l.11-2.53s-.07-.42.11-.42C28.9,0,40.77.25,52.57.26Z"/><path class="cls-1" d="M110.43,13.09c.09.49-.23,1.09.32,1.47,3.07.21,2.28-.42,2.42-.42.1,0,.7.27,1.89.32-.36,5.97,1.54,8.64-3.16,7.15.83-5.45-2.48-2.42-3.16-3.37-.22-.31.38-3.36-.32-3.68-4.72.59-35.74-.76-37.46,0-.51.22-.28,1.24-.32,1.68-.94.14-1.83-.13-2.74-.21-14.91-1.37-29.74-4.02-44.72-4.42-.24.18-.04,1.14-.11,1.47-.08.41.21,1.24-.32,1.47-.38.17-1.72-.3-2,.32-.2.46.35,2.34-.32,2.63-1.3.58-2.61-1.75-2.21,3.16-1.04.08-2.12-.25-2.53.32-.33,5.39,1.34,7-2.53,6.42,0-.12-.28-.16-.21-2.31.16-5.27.17-10.52.42-15.78.63-.08,1.64.12,2.1,0-.29,2.6.56,1.78,3.26,1.89l.32-4.84c.53.03.4-.21.42-.21,5.85.39,2.29,1.85,3.68,2.31.58.19,11.27-1.29,12.21-.63.26.18-.05.87.21,1.05.84.59,4.99-1.39,4.42,1.68,21.95.7,43.91.86,65.87.84-.19,2.61,1.51.89,4.52,1.68Z"/><path class="cls-4" d="M45.2,3.41c3.48.02,1.43,2.3,2.42,2.74.33.15,3.44-.18,4.42-.21.17,0,0-.41.32-.42.62-.02,1.61.19,2.31.21-.73,4.54,2.67,2.3,2.95,2.31.02,0-.07.42.11.42,16.56.49,33.21-.53,49.77,0-.4,4.93,1.81,2.21,2.84,2.95.24.17.04,1.32.11,1.68-3.02-.8-4.71.93-4.52-1.68-21.96.02-43.92-.14-65.87-.84.57-3.08-3.57-1.09-4.42-1.68-.26-.18.05-.87-.21-1.05-.94-.66-11.63.82-12.21.63-1.4-.47,2.16-1.92-3.68-2.31v-2.53c8.53-.49,17.14-.2,25.67-.21Z"/><path class="cls-13" d="M58.88,25.51c0,.98,0,1.96,0,2.95-3.06.14-3.42-.85-2.74,3.16-.07,0-.14,0-.21,0-.5.03-2.72-.08-2.84,0-.26.19-.02,2.25-.11,2.74-13.41.7-26.97.12-40.4.21v-1.89c.1-.03.41-.39.42-.42-.34.62,2.5.48,2.63.42.65-.29.16-4.38.32-5.16.79-.36,2.01.1,2.53.11l.53,2.53c9.73.42,19.35,2.23,29.04,2.74.75-.75.11-2.2.11-2.31,0-.08.35-.11.21-1.68,1.17-.26.77-1.25.53-2.31-8.67-.42-17.23-2.19-25.88-2.53-.72.65-.15,1.92-.11,2.31.05.48-.03.99,0,1.47-1.25-.11-2.76-.4-4-.42-.55-5.45,1.37-2.63,3.26-3.37.99-.38.25-2.67.63-2.95,9.94.79,27.13,4.29,36.09,4.42Z"/><path class="cls-6" d="M62.04,21.09c0,.09.43,1.17.42,1.26-.01.17-1.18.8,0,2.95-.46.03-.48.2-.63.21-.37.02-2.34,0-2.95,0-8.95-.12-26.15-3.63-36.09-4.42-.38.27.36,2.56-.63,2.95-1.89.73-3.81-2.09-3.26,3.37-.55,0-.4.21-.42.21-.52,0-1.73-.46-2.53-.11-.16.78.34,4.87-.32,5.16-.14.06-2.97.2-2.63-.42.25-.69-.22-2.2-.21-2.31.04-.55.4-2.01.42-2.53,3.87.58,2.19-1.03,2.53-6.42.4-.57,1.48-.23,2.53-.32.46-.04,2.57.12,2.74-.11.28-.39-.36-3.08.11-3.26,2.22.33,13.01-.5,13.68-.21.69.3-.06,2.01.63,2.31.78.34,11.71-.35,12.21,0,.29.21-.08,1.48.21,1.68.58.41,12.42-.31,14.2,0Z"/><path class="cls-14" d="M91.92,18.35c-.13.65.31,3.3-.32,3.58-.83.37-15.75-.28-18.2,0,.06-1.25-.24-3.33.32-3.58,6.07.04,12.13-.03,18.2,0Z"/><path class="cls-14" d="M106.86,21.09c-.32-.01-.16.42-.32.42-1.04-.02-6.22.32-6.52.21-.71-.26,0-2.87-.42-3.16-.34-.24-6.03.34-7.47-.21,4.87.02,9.75-.02,14.63,0l.11,2.74Z"/><path class="cls-5" d="M70.66,16.25c-.27,3.16,1.13,3.6-2.84,3.37.22,4.2-1.45,1.91-2.84,2.53l-.21-2.31c4.42-.83,2.25-1.17,2.74-2.95.02-.06.58.29.42-.84.91.08,1.8.35,2.74.21Z"/><path class="cls-14" d="M113.17,14.15c-.14,0,.65.63-2.42.42-.55-.39-.23-.98-.32-1.47-.06-.36.14-1.51-.11-1.68-1.03-.73-3.24,1.98-2.84-2.95,5.49.18,2.18.43,3.16,2.63.52,1.17,3.2-1.53,2.53,3.05Z"/><path class="cls-4" d="M19.11,6.36l-.32,4.84c-2.7-.11-3.55.71-3.26-1.89,1.11-.28.49-.71.63-3.16.4-.02.71.15.63-.42.33,1.02,1.33.57,2.31.63Z"/><path class="cls-11" d="M10.06,32.66c0,.11-.34,1.55-.42,2.1-1.27-.04-2.56.22-2.95-.32v-4.42c3-.32,3.43-.57,3.37,2.63Z"/><path class="cls-14" d="M52.36,5.52c-.33.01-.15.42-.32.42-.98.03-4.09.36-4.42.21-.99-.44,1.06-2.72-2.42-2.74,5.15,0,7.91-1.48,7.15,2.1Z"/><path class="cls-5" d="M13,25.09c-.07,2.16.22,2.2.21,2.31-.02.51-.38,1.98-.42,2.53-3.78.3-2.56-.2-2.74-4.73l2.95-.11Z"/><path class="cls-5" d="M61.82,25.51c-.09.5.16,2.76-.11,2.95-.12.08-2.35-.02-2.84,0,0-.98,0-1.96,0-2.95.61,0,2.58.02,2.95,0Z"/><path class="cls-5" d="M58.88,28.46c0,.64.07,2.68,0,2.84-.24.54-2.19.28-2.74.32-.68-4.01-.32-3.01,2.74-3.16Z"/><path class="cls-14" d="M16.16,6.15c-.14,2.45.48,2.88-.63,3.16-.46.12-1.47-.08-2.1,0,0-.14-.47-2.33-.21-2.84.25-.48,2.39-.28,2.95-.32Z"/><path class="cls-14" d="M70.03,25.09c1.28,3.96.3,2.97-2.53,3.16-.34-4.72.78-2.65,2.53-3.16Z"/><path class="cls-14" d="M67.3,28.24c.76,2.99.07,4.01-2.74,2.74.04-.54-.22-2.5.32-2.74.22-.1,1.77.05,2.42,0Z"/><path class="cls-4" d="M106.86,21.09c.15,0-.62.39,2.74.63h-2.63c-.42,3.64-.17,2.57,2.63,2.74.07,0,.14,0,.21,0-.07,2.92-.47,4.05,2.74,2.74.11.67.39.3.42.63.66,6.28-.5,27.63,0,36.3-.32.72-2.42-.09-2.74.63-.27.62.21,11.55,0,13.47-3.78-.15-2.24.54-2.53,5.89-4.28-1.27-1.46,6.99-2.31,8.21-.18.26-.87-.05-1.05.21-.32.46.24,9.72,0,11.15-4.45-.05-2.48.8-2.95,1.47-.43.61-1.74-1.62-1.58,3.89H8.37c0-2.56.6-19.88,0-20.73-.3-.42-4.72.32-5.05-.42.68-13.03-.67-28.09,0-40.93,3.93.51,2.74.25,2.95-2.95.53-.03,2.93.09,3.05,0,.26-.19.02-2.16.11-2.63,5.36-1.12,8.23,1.95,7.37-3.47.07,0,.14,0,.21,0,5.8-.25,2.61,2.8,3.89,3.37,6.12-.25,6.27,1.38,6-3.58,2.24-.02,4.49.01,6.73,0-.69,5.42,1.19,3.13,8.31,3.58.69-.31.04-2.89.42-3.16.78-.55,14.38.62,18.94-.42l.11-3.37c.07,0,.14,0,.21,0,.48-.03,2.79.12,2.95-.11.08-.12-.03-2.35,0-2.84,0-.14,0-.28,0-.42,2.81,1.27,3.5.25,2.74-2.74.07,0,.14,0,.21,0,2.83-.18,3.8.8,2.53-3.16.5-.14.28.08.42-.42,3.65,1.3,2.84.22,2.95-2.53,0-.07,0-.14,0-.21,2.45-.28,17.37.37,18.2,0,.63-.28.18-2.93.32-3.58.07,0,.14,0,.21,0,1.44.55,7.13-.03,7.47.21.41.29-.29,2.9.42,3.16.31.11,5.49-.23,6.52-.21.16,0,0-.43.32-.42Z"/><path class="cls-1" d="M8.37,109.05h91.43c-.16-5.51,1.15-3.28,1.58-3.89.47-.67-1.51-1.53,2.95-1.47.24-1.43-.32-10.7,0-11.15.18-.26.87.05,1.05-.21.85-1.22-1.97-9.47,2.31-8.21.29-5.35-1.26-6.04,2.53-5.89.21-1.92-.27-12.85,0-13.47.32-.72,2.42.09,2.74-.63-.5-8.67.66-30.02,0-36.3l2.1-.11v56.61l-4.31.11c-.7,7.42,1.85,7.56-3.89,7.47-.84,5.49,2.53,2.45,3.68,3.26.31.22.06,5.82.11,6.63-4.99-.86-2.19,3.71-3.05,10.21-5.24-.67-2.42,2.01-3.58,2.53H13.74c-.34-5.06-1.76-1.95-5.58-3.26-.2-.8.21-2.1.21-2.21Z"/><path class="cls-14" d="M61.4,34.35l-.11,3.37c-4.56,1.04-18.16-.13-18.94.42-.38.27.27,2.85-.42,3.16-7.12-.45-9,1.85-8.31-3.58,8.31-.04,16.62.34,24.94,0,.33-.23-.07-2.65.11-3.05.24-.54,2.19-.28,2.74-.32Z"/><path class="cls-14" d="M16.79,37.92c.87,5.42-2.01,2.35-7.37,3.47-.08.47.16,2.44-.11,2.63-.12.09-2.53-.03-3.05,0,.04-.56-.23-2.71.32-2.95,1.6-.71,3.16,2,2.95-3.16,2.42-.05,4.84.07,7.26,0Z"/><path class="cls-14" d="M26.89,37.71c.28,4.95.13,3.33-6,3.58-1.28-.57,1.91-3.61-3.89-3.37,3.3-.09,6.59-.18,9.89-.21Z"/><path class="cls-14" d="M6.27,44.03c-.2,3.19.98,3.46-2.95,2.95.03-.56-.22-2.71.32-2.95.22-.1,1.97.04,2.63,0Z"/><path class="cls-14" d="M64.56,31.4c-.03.49.08,2.72,0,2.84-.16.22-2.47.07-2.95.11l.11-2.95h2.84Z"/><path class="cls-14" d="M73.4,22.14c-.1,2.74.71,3.82-2.95,2.53.53-1.87-1.62-2.86,2.95-2.53Z"/><path class="cls-5" d="M55.93,31.61c.26,4.3-.38,2.6-2.95,2.74.08-.48-.16-2.55.11-2.74.12-.08,2.34.03,2.84,0Z"/><path class="cls-14" d="M112.54,27.19c-3.21,1.32-2.8.19-2.74-2.74.54.03,2.5-.22,2.74.32.13.29-.11,1.78,0,2.42Z"/><path class="cls-5" d="M62.46,22.35h2.31c-.16.36.15,2.63,0,2.84-.16.22-1.9.08-2.31.11-1.18-2.15-.01-2.77,0-2.95Z"/><path class="cls-14" d="M57.62,8.04c-.28-.01-3.67,2.23-2.95-2.31.94.03,1.9-.02,2.84,0l.11,2.31Z"/><path class="cls-14" d="M19.53,3.62v2.53s.11.25-.42.21c-.99-.06-1.98.39-2.31-.63-.33-3.54.83-1.99,2.74-2.1Z"/><path class="cls-14" d="M109.59,21.72v2.74c-2.8-.16-3.05.91-2.63-2.74h2.63Z"/><path class="cls-3" d="M64.77,19.83l.21,2.31s-.2.2-.21.21h-2.31c0-.09-.43-1.17-.42-1.26.14-2.06,1.31-1,2.74-1.26Z"/><path class="cls-5" d="M12.58,32.66v1.89c-.94,0-1.94.24-2.95.21.08-.55.42-2,.42-2.1.75-.09,2.13.13,2.53,0Z"/><path class="cls-15" d="M18.9,27.4c1.23.02,2.75.31,4,.42,8.43.72,16.81,2.16,25.25,2.74,0,.12.65,1.56-.11,2.31-9.69-.51-19.31-2.32-29.04-2.74l-.53-2.53s-.13-.22.42-.21Z"/><path class="cls-15" d="M48.36,28.88c-2.43.53-20.92-2.36-25.46-2.53-.04-.4-.62-1.66.11-2.31,8.65.33,17.21,2.11,25.88,2.53.24,1.07.64,2.06-.53,2.31Z"/><path class="cls-8" d="M48.36,28.88c.14,1.57-.21,1.6-.21,1.68-8.45-.57-16.82-2.02-25.25-2.74-.03-.48.05-.99,0-1.47,4.55.16,23.03,3.06,25.46,2.53Z"/><path class="cls-10" d="M24.58,13.09c1.17.12,2.2.16,3.37.21,4.29.2,8.67.23,12.94.63,8.39.79,17.81,3.42,26.62,2.95-.48,1.78,1.69,2.12-2.74,2.95-1.43.27-2.59-.8-2.74,1.26-1.79-.31-13.62.41-14.2,0-.29-.21.08-1.48-.21-1.68-.5-.35-11.43.34-12.21,0-.69-.3.06-2.01-.63-2.31-.67-.29-11.46.54-13.68.21-.47.18.17,2.87-.11,3.26-.16.23-2.28.07-2.74.11-.4-4.91.91-2.58,2.21-3.16.66-.29.11-2.17.32-2.63.28-.62,1.62-.15,2-.32.53-.23.23-1.07.32-1.47.49.03.99-.05,1.47,0Z"/><path class="cls-9" d="M67.93,16.04c.16,1.13-.41.79-.42.84-8.81.47-18.23-2.16-26.62-2.95-4.27-.4-8.65-.43-12.94-.63.41-1.69-2.52-1.92-3.37-.21-.48-.05-.99.03-1.47,0,.07-.34-.14-1.29.11-1.47,14.97.4,29.8,3.05,44.72,4.42Z"/><path class="cls-7" d="M27.95,13.3c-1.16-.05-2.2-.09-3.37-.21.84-1.71,3.78-1.48,3.37.21Z"/></g></svg>