<?xml version="1.0" encoding="UTF-8"?><svg id="Layer_2" xmlns="http://www.w3.org/2000/svg" viewBox="0 0 125.88 121.78"><defs><style>.cls-1{fill:#06596c;}.cls-1,.cls-2,.cls-3,.cls-4,.cls-5,.cls-6,.cls-7,.cls-8,.cls-9,.cls-10,.cls-11,.cls-12,.cls-13,.cls-14,.cls-15,.cls-16,.cls-17,.cls-18,.cls-19,.cls-20{stroke-width:0px;}.cls-2{fill:#ecda85;}.cls-3{fill:#db5168;}.cls-4{fill:#1f8496;}.cls-5{fill:#a71238;}.cls-6{fill:#b7b6b3;}.cls-7{fill:#f1e2aa;}.cls-8{fill:#e87583;}.cls-9{fill:#0f0d0e;}.cls-10{fill:#5dafbe;}.cls-11{fill:#fafcfd;}.cls-12{fill:#bde0f3;}.cls-13{fill:#3285aa;}.cls-14{fill:#4597bb;}.cls-15{fill:#dbecf4;}.cls-16{fill:#cc254c;}.cls-17{fill:#419daf;}.cls-18{fill:#2cacce;}.cls-19{fill:#acd1c7;}.cls-20{fill:#f1aaad;}</style></defs><g id="Layer_1-2"><path class="cls-6" d="M123.76,103.58c.83-28.83-.62-57.79,0-86.63.71.44.18.97.55,1.55.31.5.9.29,1.27,1.27.02,21.94.52,43.94.18,65.89-.04,2.38-.05,16.26-.73,17.29-.04.06-.81.38-1.27.64Z"/><path class="cls-8" d="M30.94,113.96c-2.75.16-18.46-.67-19.38-.36-.51.17-.04,1.05-.46,1.27-.05-.26.11-.95-.09-1.09-.33-.24-3.37.2-3.55.18-.24-.02-.85-.52-1.09-.55.12-.59-.28-3.21.27-3.46,1.21-.54,23.04.41,26.39,0,.47,3.14,1.17,3.81-2.09,4Z"/><path class="cls-3" d="M30.94,113.96l-.09,2.37c-2.55-.3-18.58.39-19.47,0-.46-.2-.21-1.07-.27-1.46.42-.22-.06-1.1.46-1.27.92-.3,16.63.52,19.38.36Z"/><path class="cls-8" d="M117.58,113.41c-.39.04-1.03.54-1.09.55-.23.02-3.23-.02-4.55,0-6.4.09-12.88-.89-19.29-.18.02-.22-.13-.16-.18-.18.7-.51.23-2.23.36-3.64,2.73-.14,23.19-.49,24.3,0,.63.28-.03,2.85.46,3.46Z"/><path class="cls-3" d="M111.93,113.96l-.27,2.37c-2.46-.29-17.89.38-18.75,0-.52-.23-.17-2.04-.27-2.55,6.42-.7,12.89.28,19.29.18Z"/><path class="cls-20" d="M92.82,109.95c-.13,1.41.34,3.13-.36,3.64-1.29-.55-2.56,1.73-2.18-3.37.35-.48,1.46-.22,2.55-.27Z"/><path class="cls-9" d="M123.76,16.95c-.62,28.84.83,57.8,0,86.63-.03.94.02,1.88,0,2.82-3.97-.39-2.17,1.49-2.55,6.92-.16.22-3.06.03-3.64.09-.49-.61.18-3.18-.46-3.46-1.11-.49-21.57-.14-24.3,0-1.09.06-2.2-.21-2.55.27-.37,5.1.89,2.82,2.18,3.37.05.02.2-.04.18.18.1.5-.25,2.32.27,2.55.86.38,16.29-.29,18.75,0l.27-2.37c1.32-.02,4.32.02,4.55,0,.75,7.83-1.98,3.93-3.37,4.91-.29.2.1,2.71-.18,2.91H10.83c-.29-.2.1-2.71-.18-2.91-.2-.14-2.99.18-3.19-.09-.14-.2.1-4.11,0-4.82.18.02,3.22-.42,3.55-.18.2.14.05.83.09,1.09.07.38-.19,1.25.27,1.46.89.39,16.93-.3,19.47,0l.09-2.37c3.26-.19,2.56-.87,2.09-4-3.35.41-25.18-.54-26.39,0-.55.24-.15,2.86-.27,3.46-.58-.06-3.48.13-3.64-.09-.24-.35.37-6.31-.27-6.64-.37-.2-2.19.32-2.46-.27V17.04c.27-.61,2.85-.03,3.09-.36.17-.25-.18-5.6,0-6.01.28-.62,3.39-.01,3.64-.36.2-.29-.34-3.64.27-3.91,6.16.58,3.05-1.5,4.19-2,1.96-.87,3.32,2.53,3.09-4.19,2.21.4,17.28-.52,18.02,0,.29.21-.11,3.61.18,3.82.43.31,10.13.31,10.56,0,.8-.57-1.48-4.35,2-4h64.25c1.1,3.87-1.63,4.72,3.46,4.37,1.12.49-1.9,2.58,4,2,1.07,4.18-1.63,4.27,3.73,4.28.13.83-.17,5.76,0,6.01.23.32,2.54-.19,3.28.27Z"/><path class="cls-7" d="M112.84,10.76c.49.49,3.6-.07,3.82.27-.2,7.35-1.53,7.84,3.64,7.64v65.34c-.22.31-5.16-.09-5.55.09-.5.24-.24,3.74-3.64,1.64-.99-.61-1.39-1.84-1.91-1.64.81-3.26-2.27-6.6,3.46-5.92q-.09-29.58-.18-59.15c-.21-.29-3.25.11-3.46-.18-.22-.32.25-7.49-.09-7.74H14.83c-.72,6.37,1.78,8.36-3.19,7.92v59.15c.08.19.47.04.55.09.86.61,1.01.23,2.18.46-1.02,8,1.31,5.72,1.46,6.37-8.86,8.85-5.38,1.18-6.19-.91-.37-.96-5.25-.15-6.37-.55V18.68c.53-.36,2.58.26,2.91-.27.53-.85-.07-7.06.18-7.55.31-.59,4.73-.08,5.01-.27.36-.26-.27-4.09.36-4.37h100.65c.69.31-.1,3.99.46,4.55Z"/><path class="cls-7" d="M6.19,18.41c-.33.53-2.38-.09-2.91.27v64.98c1.12.4,6-.42,6.37.55.81,2.09-2.68,9.76,6.19.91-.15-.65-2.47,1.63-1.46-6.37-1.17-.23-1.32.16-2.18-.46,4.05-.08,2.04.98,2.64,6.19,1.51-.27,11.52.35,12.01,0,.29-.21-.11-3.25.18-3.46.25-.18,5.29-.17,6.1-.18.17,0,.19.18.36.18l.27,3.28q28.3.09,56.6.18c.62-.28.02-3.21.36-3.46.25-.18,5.94-.18,6.19,0,.29.21-.11,3.43.18,3.64.49.35,11.48.28,12.01,0,.18-.09.05-.39.09-.55.52-.2.92,1.02,1.91,1.64,3.4,2.1,3.14-1.4,3.64-1.64.39-.18,5.33.22,5.55-.09V18.68c-5.17.2-3.84-.3-3.64-7.64-.23-.34-3.33.21-3.82-.27.64.09,3.93-.12,4.1,0,.34.24-.13,7.25.09,7.55.21.29,3.61-.11,3.82.18l-.18,65.7c-.22.32-5.3-.1-5.73.09-.71.32.17,4.78-.55,5.1H9.56c-.65-.29,0-4.84-.36-5.1-.32-.23-6,.37-6.28-.27V18.5l3.28-.09Z"/><path class="cls-8" d="M72.07,113.78c-1.01.06-18.54.06-20.2,0-.02,0,.13-.15-.36-.18,1-.28.39-2.05.55-3.64,7.29-.26,14.63.19,21.93,0,.12,3.68.77,3.65-1.91,3.82Z"/><path class="cls-3" d="M72.07,113.78c-.1.5.25,2.32-.27,2.55-.9.4-17.09-.3-19.66,0l-.27-2.55c1.66.06,19.19.06,20.2,0Z"/><path class="cls-20" d="M52.05,109.95c-.16,1.59.45,3.36-.55,3.64-.36-.02-1.87.1-2-.09v-3.46c.13-.18,2.15-.08,2.55-.09Z"/><path class="cls-8" d="M120.12,101.95c-5.32-.61-2.43,1.69-3.55,2.18-.5.22-1.64-.19-1.73-.18.13-1.03-.16-1.7-.18-2-.08-1.32-.04-3.02,0-4.37.05-1.49.21-3.07.36-4.55,1.82.03,3.65-.09,5.46.09.07,2.94-.3,5.89-.36,8.83Z"/><path class="cls-5" d="M120.12,101.95c-.02.81.58,4.98-.09,5.28-.37.16-6.95-.01-8.1,0,.44-.83.02-2.44.18-2.82.12-.26,2.31-.42,2.73-.46.09,0,1.23.4,1.73.18,1.12-.5-1.77-2.8,3.55-2.18Z"/><path class="cls-7" d="M115.03,93.03c-.16,1.49-.32,3.06-.36,4.55-1.09-.16-3.84-.71-4,.55-4.9.88-6.47-1.34-6.01,2.18.04.33-.11,1.49.09,1.64h9.92c.02.3.31.98.18,2-.42.04-2.61.19-2.73.46-.17.38.25,1.99-.18,2.82-36.17.36-72.39-.64-108.57-.18l-.09-13.92q43.82-.05,87.64-.09l.36,3.28c5.01-.76,5.32,1.84,5.28-3.28,6.16.07,12.32-.09,18.47,0Z"/><path class="cls-9" d="M65.25,97.03h7.64l.27,4.82-8.1.09.18-4.91Z"/><path class="cls-9" d="M49.6,97.21h7.64l.09,4.82-7.55.09-.18-4.91Z"/><path class="cls-9" d="M20.84,97.21h7.64l.09,4.64c-8.06.44-8.34,1.76-7.74-4.64Z"/><path class="cls-9" d="M35.04,97.21h7.64l.09,4.64c-8.06.44-8.34,1.76-7.74-4.64Z"/><path class="cls-9" d="M79.63,97.03h5.82l.09,5.01c-6.53,0-6.85,1.68-5.92-5.01Z"/><path class="cls-9" d="M10.83,97.03l4.28.09c-.17,5.03,1.38,5.7-4.55,4.73l.27-4.82Z"/><path class="cls-9" d="M114.66,97.58c-.04,1.34-.08,3.05,0,4.37h-9.92c-.2-.14-.05-1.31-.09-1.64,8.28.68,5.73-.05,6.01-2.18.16-1.25,2.91-.71,4-.55Z"/><path class="cls-16" d="M104.65,100.31c-.46-3.52,1.1-1.31,6.01-2.18-.28,2.13,2.28,2.86-6.01,2.18Z"/><path class="cls-9" d="M109.2,84.11c-.04.16.09.45-.09.55-.53.28-11.52.35-12.01,0-.29-.21.11-3.43-.18-3.64-.25-.18-5.94-.18-6.19,0-.35.24.26,3.18-.36,3.46q-28.3-.09-56.6-.18l-.27-3.28c18.96-.19,37.92.14,56.88,0l.27-3.64c.86.02,6.17.13,6.46,0,1.16-.51-1.75-3.24,3.28-2.55.21-16.93.03-34.18.09-51.23-2.68-.16-.89-2.72-1.55-3.19-.97-.69-4.57,1.79-3.73-2.46-1.22-.33-2.07.09-2.18.09-.43,0-.95-.19-1.46-.18l-.09-3.46q-28.21-.09-56.42-.18l-.09.36c-.6,4.81-2.03-.11-2.28-.18-3.02-.94-1.86,1.56-2.09,3.28-.12.89-.34.47-.36.55-2.26-.02-2.29-.37-2.18,2-.02,0,.06.33-.09.36-2.76.57-3.72-1.71-3.37,3-1.96-.12-1.23,2.2-1.27,3.73-.45,15.72.34,31.51,0,47.23.2.28,3.53-.05,3.73.09.33.23-.24,2.46.36,2.73.35.15,4.91.01,5.73,0v3.46c-.81,0-5.85,0-6.1.18-.29.21.11,3.25-.18,3.46-.49.35-10.5-.27-12.01,0-.6-5.21,1.41-6.27-2.64-6.19-.07-.05-.47.1-.55-.09V19.04c4.96.44,2.47-1.55,3.19-7.92h94.1c.34.24-.13,7.42.09,7.74.21.29,3.25-.11,3.46.18q.09,29.58.18,59.15c-5.73-.68-2.64,2.66-3.46,5.92Z"/><path class="cls-2" d="M14.65,19.13l5.55.09q-.14,29.44-.27,58.88c-4.91.42-2.91-1.07-3.46-1.46-.22-.15-1.85.28-2.09-.27l.27-57.24Z"/><path class="cls-2" d="M103.65,19.13l5.37.09v57.33c-.79.43-1.81.21-1.91.27-.19.13.61,2.15-3.73,1l.27-58.7Z"/><path class="cls-17" d="M90.64,77.38s.12-.17-.36-.18c-1.76-.04-3.51-.16-5.28-.18l5.55-.18c-.09-.43-.11-.84-.09-1.27.89.1,1.68-.06,2.55-.18.28-.04-.02.7.73-.09.28-.29-.69-.94,2.18-1.27-.73-7.12.1-44.83-.36-47.14-.02-.12-1-1.85-1.37-2.09-.05-.03-1.01-.07-1.18-.18v-6.55c.11,0,.96-.42,2.18-.09-.84,4.25,2.76,1.77,3.73,2.46.66.47-1.13,3.03,1.55,3.19-.06,17.05.12,34.31-.09,51.23-5.03-.69-2.11,2.03-3.28,2.55-.3.13-5.6.02-6.46,0Z"/><path class="cls-4" d="M91.55,17.86c-.9.02-1.77-.02-2.64,0-.14,0,0,.36-.27.36-19.18.4-38.42-.13-57.6.18-.79,2.21-1.96,1.11-3.37,3.09-2.52-.62-1.75,1.07-1.82,5.46l-2.55.36c.04-1.53-.68-3.85,1.27-3.73-.35-4.72.6-2.44,3.37-3,.15-.03.07-.36.09-.36,2.86-.77,1.9-1.06,2.18-2,.02-.07.24.34.36-.55.27-.02.12.32.27.36.95.28,16.43-.21,19.66,0v-3.46h-15.56l.09-.36q28.21.09,56.42.18l.09,3.46Z"/><path class="cls-1" d="M91.55,17.86c.51-.01,1.03.17,1.46.18v57.33c-.87.12-1.66.29-2.55.18.46-10.78.19-38.51,0-50.6-.07-4.7.8-7.06-1.82-6.55v-.18c.28,0,.13-.36.27-.36.87-.02,1.74.02,2.64,0Z"/><path class="cls-17" d="M34.94,14.58h15.56v3.46c-3.22-.21-18.71.28-19.66,0-.15-.04,0-.39-.27-.36.24-1.71-.92-4.22,2.09-3.28.25.08,1.68,4.99,2.28.18Z"/><path class="cls-10" d="M30.21,18.22c-.29.94.68,1.23-2.18,2-.11-2.37-.08-2.02,2.18-2Z"/><path class="cls-4" d="M36.22,77.19l.27.55c17.79.83,35.68.35,53.51.36l.27-.91c.48.01.34.18.36.18l-.27,3.64c-18.96.14-37.92-.19-56.88,0-.17,0-.19-.18-.36-.18v-3.46c1-.02,2.06-.16,3.09-.18Z"/><path class="cls-4" d="M85,77.01c1.77.02,3.52.14,5.28.18l-.27.91c-17.83-.02-35.72.46-53.51-.36l-.27-.55c16.24-.27,32.53-.37,48.78-.18Z"/><path class="cls-12" d="M28.39,36.61c1.81.04,3.65.03,5.46,0-.33,1.26-.18,2.7-.18,4-.03,9.62.02,19.23,0,28.85-.22.31-3.88-.09-4.28.09-.88.39.61,2.07-1,2.37.15-4.79-.77-33.5-.36-35.22.03-.14.24-.09.36-.09Z"/><path class="cls-11" d="M27.66,21.5c.16.04.76.72.82.73,1.51.19,5.33-.75,5.73,1.09.21.94-.35,4.09.27,4.37.33.14,2.22-.14,2.55,0,.91.4-1.53,1.91,3.91,1.46-.13,1.57.1,3.24,0,4.82-6.4-.48-1.98,2.45-4.55,2.82-.13.02-.53-.22-2.55-.18-1.81.03-3.65.04-5.46,0-.85-.02-1.71.03-2.55-.18.04-3.15-.05-6.31,0-9.46.07-4.39-.7-6.08,1.82-5.46Z"/><path class="cls-15" d="M28.39,36.61c-.12,0-.33-.04-.36.09-.41,1.71.51,30.43.36,35.22-.39.07-2.56.11-2.73-.27-.08-11.74.03-23.48.18-35.22.84.21,1.7.17,2.55.18Z"/><path class="cls-14" d="M86.27,23.14c0,.58,1.32.25.91,1.82q-19.93-.09-39.86-.18c1.22-.86,5.04,1.07,4.55-1.64,8.96,0,27.29.41,34.4,0Z"/><path class="cls-13" d="M90.46,24.96h-3.28c.41-1.57-.92-1.24-.91-1.82,1.01-.06,2.02.21,2.37-.27v-4.46c2.62-.5,1.75,1.85,1.82,6.55Z"/><path class="cls-10" d="M87.18,24.96h3.28c.19,12.09.46,39.82,0,50.6-.02.43,0,.85.09,1.27l-5.55.18c-16.24-.19-32.53-.09-48.78.18-1.03.02-2.09.16-3.09.18-.82.01-5.38.15-5.73,0-.6-.27-.04-2.5-.36-2.73-.2-.14-3.53.19-3.73-.09.34-15.72-.45-31.51,0-47.23l2.55-.36c-.05,3.15.04,6.31,0,9.46-.15,11.74-.26,23.48-.18,35.22.17.39,2.34.34,2.73.27,1.61-.3.12-1.98,1-2.37.4-.18,4.06.21,4.28-.09.02-9.62-.03-19.23,0-28.85.99-.39,2.54,0,2.73-.27.1-.15-.08-2.88,0-3.55,2.57-.37-1.85-3.3,4.55-2.82.1-1.58-.13-3.26,0-4.82.03-.41.19-2.61.46-2.73,8.02.39,4.67-.76,5.92-1.64q19.93.09,39.86.18Z"/><path class="cls-17" d="M36.4,36.79c-.08.67.1,3.4,0,3.55-.19.26-1.74-.12-2.73.27,0-1.3-.15-2.75.18-4,2.02-.03,2.42.2,2.55.18Z"/><path class="cls-10" d="M93,75.37V24.59c.17.11,1.13.15,1.18.18.37.24,1.34,1.97,1.37,2.09.46,2.31-.37,40.02.36,47.14-2.87.34-1.91.98-2.18,1.27-.75.79-.45.05-.73.09Z"/><path class="cls-12" d="M88.64,18.22v4.64c-.34.48-1.36.21-2.37.27-7.11.41-25.44,0-34.4,0-5.88,0-11.78-.15-17.65.18-.41-1.84-4.22-.9-5.73-1.09-.05,0-.66-.69-.82-.73,1.41-1.98,2.57-.88,3.37-3.09,19.19-.31,38.42.22,57.6-.18Z"/><path class="cls-18" d="M51.87,23.14c.49,2.71-3.33.78-4.55,1.64-1.25.87,2.11,2.03-5.92,1.64-.26.12-.42,2.32-.46,2.73-5.44.45-3.01-1.06-3.91-1.46-.33-.14-2.22.14-2.55,0-.62-.27-.07-3.43-.27-4.37,5.88-.33,11.77-.18,17.65-.18Z"/><path class="cls-19" d="M38.86,25.87h1.46c.83,2.04-2.33,2.26-1.46,0Z"/></g></svg>